<svg xmlns="http://www.w3.org/2000/svg" xmlns:xlink="http://www.w3.org/1999/xlink" width="500" zoomAndPan="magnify" viewBox="0 0 375 374.999991" height="500" preserveAspectRatio="xMidYMid meet" version="1.0"><path fill="#3abeda" d="M 95.292969 220.613281 C 99.109375 234.460938 102.78125 251.253906 107.160156 277.585938 C 114.375 320.988281 124.027344 337.851562 132.632812 345.289062 C 134.257812 346.695312 136.226562 347.636719 138.300781 348.203125 C 147.585938 350.734375 156.894531 344.238281 157.714844 334.640625 L 165.191406 247.484375 C 165.648438 242.183594 167.507812 236.988281 171.035156 233.007812 C 180.507812 222.328125 196.972656 222.328125 206.445312 233.007812 C 209.972656 236.988281 211.835938 242.183594 212.289062 247.484375 L 219.765625 334.640625 C 220.589844 344.238281 229.902344 350.742188 239.179688 348.203125 C 241.253906 347.640625 243.222656 346.695312 244.847656 345.289062 C 253.457031 337.859375 263.105469 320.988281 270.324219 277.585938 C 277.679688 233.339844 283.039062 215.949219 290.453125 194.394531 C 295.460938 179.835938 302.984375 165.101562 308.257812 146.195312 C 280.378906 164.382812 246.734375 180.746094 211.910156 193.445312 C 172.652344 207.765625 131.523438 217.578125 95.292969 220.613281 Z M 95.292969 220.613281 " fill-opacity="1" fill-rule="nonzero"/><path fill="#ffffff" d="M 360.835938 48.609375 C 356.652344 37.117188 344.371094 29.375 326.359375 25.363281 C 325.164062 25.097656 324.605469 26.800781 325.726562 27.304688 C 333.511719 30.78125 338.816406 35.628906 341.085938 41.859375 C 346.207031 55.921875 334.964844 74.539062 312.375 93.726562 C 302.808594 44.214844 249.089844 49.453125 231.128906 55.855469 C 230.535156 56.0625 229.882812 56.285156 229.191406 56.511719 C 214.453125 61.265625 200.738281 68.609375 188.636719 78.273438 C 178.695312 86.214844 164.347656 94.164062 147.367188 93.320312 C 147.367188 93.320312 169.140625 84.199219 177.582031 63.777344 C 173.394531 63.296875 169.238281 62.558594 165.128906 61.53125 C 159.527344 60.128906 153.183594 58.289062 146.363281 55.855469 C 126.085938 48.632812 60.179688 42.78125 63.714844 115.574219 C 66.082031 143.976562 74.886719 163.683594 82.109375 181.523438 C 46.507812 183.234375 21.308594 176.339844 15.5625 160.566406 C 13.292969 154.335938 14.242188 147.210938 17.960938 139.535156 C 18.496094 138.433594 16.976562 137.484375 16.230469 138.460938 C 5.023438 153.128906 0.605469 166.960938 4.789062 178.453125 C 17.738281 213.996094 107.9375 213.738281 206.257812 177.882812 C 304.578125 142.027344 373.78125 84.15625 360.835938 48.609375 Z M 360.835938 48.609375 " fill-opacity="1" fill-rule="nonzero"/></svg>