<svg xmlns="http://www.w3.org/2000/svg" xmlns:xlink="http://www.w3.org/1999/xlink" width="500" zoomAndPan="magnify" viewBox="0 0 375 374.999991" height="500" preserveAspectRatio="xMidYMid meet" version="1.0"><defs><clipPath id="16e0f850da"><path d="M 213.578125 0.921875 L 375 0.921875 L 375 152 L 213.578125 152 Z M 213.578125 0.921875 " clip-rule="nonzero"/></clipPath><clipPath id="b98bcc6f1a"><path d="M 3.042969 105.472656 L 313.464844 105.472656 L 313.464844 375 L 3.042969 375 Z M 3.042969 105.472656 " clip-rule="nonzero"/></clipPath><clipPath id="06db9184fb"><path d="M 39.15625 230.78125 L 201.28125 230.78125 L 201.28125 375 L 39.15625 375 Z M 39.15625 230.78125 " clip-rule="nonzero"/></clipPath></defs><g clip-path="url(#16e0f850da)"><path fill="#b4e7f6" d="M 269.339844 60.976562 C 270.566406 61.027344 271.75 61.105469 272.984375 61.148438 C 272.984375 61.148438 178.871094 35.992188 227.703125 20.464844 C 235.4375 18.675781 243.9375 16.1875 252.820312 12.707031 C 291.472656 -2.425781 343.140625 -12.09375 364.988281 42.96875 C 375.390625 69.195312 378.4375 108.492188 373.03125 151.894531 C 361.152344 119.867188 332.695312 84.882812 269.339844 60.976562 " fill-opacity="1" fill-rule="nonzero"/></g><path fill="#81d7f7" d="M 156.410156 111.265625 C 103.269531 100.738281 46.75 103.183594 3.570312 139.410156 C 0.15625 101.003906 3.550781 66.652344 12.949219 42.96875 C 24.445312 13.984375 44.207031 2.941406 65.984375 1.1875 C 80.757812 -0.00390625 94.078125 2.945312 107.207031 9.398438 C 121.054688 16.214844 134.503906 23.8125 148.152344 31.011719 C 172.878906 44.054688 212.695312 58.609375 269.339844 60.976562 C 332.695312 84.882812 361.152344 119.867188 373.03125 151.894531 C 367.082031 199.621094 350.917969 252.304688 322.976562 298.089844 C 319.695312 303.46875 316.5 308.476562 313.402344 313.136719 C 309.765625 292.835938 300.050781 248.363281 279.371094 208.3125 C 265.011719 180.5 220.054688 123.875 156.410156 111.265625 " fill-opacity="1" fill-rule="nonzero"/><g clip-path="url(#b98bcc6f1a)"><path fill="#60ccf5" d="M 156.410156 111.265625 C 220.054688 123.875 265.011719 180.5 279.371094 208.3125 C 300.050781 248.363281 309.765625 292.835938 313.402344 313.136719 C 266.167969 384.207031 240.640625 374.585938 240.640625 374.585938 C 240.640625 374.585938 225.09375 369.542969 214.589844 339.699219 C 208.128906 321.335938 205.640625 302.980469 201.160156 291.574219 C 201.160156 291.574219 177.207031 217.8125 97.808594 232.941406 C 66.96875 238.820312 49.570312 253.929688 39.777344 270.203125 C 18.988281 227.421875 7.265625 181.039062 3.570312 139.410156 C 46.75 103.183594 103.269531 100.738281 156.410156 111.265625 " fill-opacity="1" fill-rule="nonzero"/></g><g clip-path="url(#06db9184fb)"><path fill="#51ade5" d="M 97.808594 232.941406 C 177.207031 217.8125 201.160156 291.574219 201.160156 291.574219 C 198.359375 284.445312 194.78125 280.015625 188.96875 280.015625 C 173.84375 280.015625 173.84375 309.859375 163.339844 339.699219 C 152.839844 369.542969 137.296875 374.585938 137.296875 374.585938 C 137.296875 374.585938 108.308594 385.515625 54.957031 298.089844 C 49.4375 289.035156 44.398438 279.707031 39.777344 270.203125 C 49.570312 253.929688 66.96875 238.820312 97.808594 232.941406 " fill-opacity="1" fill-rule="nonzero"/></g></svg>