<svg xmlns="http://www.w3.org/2000/svg" xmlns:xlink="http://www.w3.org/1999/xlink" width="500" zoomAndPan="magnify" viewBox="0 0 375 127.500001" height="170" preserveAspectRatio="xMidYMid meet" version="1.0"><defs><g/><clipPath id="fb835b8d59"><path d="M 37 47 L 122 47 L 122 126.746094 L 37 126.746094 Z M 37 47 " clip-rule="nonzero"/></clipPath></defs><g fill="#ffffff" fill-opacity="1"><g transform="translate(143.051572, 74.822783)"><g><path d="M 12.359375 -15.03125 L 21.8125 -24.40625 C 21.863281 -24.570312 21.890625 -24.722656 21.890625 -24.859375 C 21.890625 -25.242188 21.722656 -25.5 21.390625 -25.625 C 21.066406 -25.75 20.566406 -25.84375 19.890625 -25.90625 C 19.347656 -25.96875 18.945312 -26.039062 18.6875 -26.125 C 18.4375 -26.207031 18.3125 -26.363281 18.3125 -26.59375 C 18.3125 -26.632812 18.347656 -26.757812 18.421875 -26.96875 L 30.09375 -26.96875 L 30.1875 -26.59375 C 30.1875 -26.414062 29.921875 -26.234375 29.390625 -26.046875 C 28.867188 -25.867188 28.148438 -25.6875 27.234375 -25.5 C 25.910156 -25.207031 24.929688 -24.800781 24.296875 -24.28125 L 16.265625 -16.03125 L 25.953125 -2.6875 C 26.128906 -2.5 26.4375 -2.316406 26.875 -2.140625 C 27.3125 -1.972656 27.894531 -1.769531 28.625 -1.53125 C 29.394531 -1.300781 29.984375 -1.09375 30.390625 -0.90625 C 30.804688 -0.726562 31.015625 -0.550781 31.015625 -0.375 C 31.015625 -0.21875 30.984375 -0.09375 30.921875 0 L 16.75 0 C 16.675781 -0.175781 16.640625 -0.296875 16.640625 -0.359375 C 16.640625 -0.554688 16.765625 -0.703125 17.015625 -0.796875 C 17.273438 -0.890625 17.679688 -0.976562 18.234375 -1.0625 C 18.890625 -1.15625 19.382812 -1.265625 19.71875 -1.390625 C 20.0625 -1.523438 20.234375 -1.765625 20.234375 -2.109375 C 20.234375 -2.242188 20.117188 -2.46875 19.890625 -2.78125 L 12.453125 -13.671875 L 10.578125 -13.671875 L 10.578125 -2.5625 C 10.578125 -2.132812 10.71875 -1.8125 11 -1.59375 C 11.289062 -1.382812 11.632812 -1.25 12.03125 -1.1875 C 12.4375 -1.125 12.945312 -1.082031 13.5625 -1.0625 C 14.238281 -1.019531 14.726562 -0.957031 15.03125 -0.875 C 15.34375 -0.800781 15.5 -0.640625 15.5 -0.390625 C 15.5 -0.367188 15.460938 -0.238281 15.390625 0 L 1.515625 0 C 1.453125 -0.164062 1.421875 -0.285156 1.421875 -0.359375 C 1.421875 -0.585938 1.570312 -0.742188 1.875 -0.828125 C 2.1875 -0.921875 2.648438 -1.003906 3.265625 -1.078125 C 3.878906 -1.160156 4.367188 -1.242188 4.734375 -1.328125 C 5.109375 -1.410156 5.429688 -1.5625 5.703125 -1.78125 C 5.984375 -2 6.125 -2.300781 6.125 -2.6875 L 6.125 -24.15625 C 6.125 -24.6875 5.867188 -25.0625 5.359375 -25.28125 C 4.847656 -25.507812 4.128906 -25.691406 3.203125 -25.828125 C 2.566406 -25.941406 2.109375 -26.046875 1.828125 -26.140625 C 1.546875 -26.234375 1.40625 -26.382812 1.40625 -26.59375 C 1.40625 -26.632812 1.441406 -26.757812 1.515625 -26.96875 L 15.3125 -26.96875 C 15.363281 -26.789062 15.390625 -26.675781 15.390625 -26.625 C 15.390625 -26.382812 15.238281 -26.210938 14.9375 -26.109375 C 14.632812 -26.015625 14.15625 -25.921875 13.5 -25.828125 C 12.882812 -25.734375 12.378906 -25.632812 11.984375 -25.53125 C 11.597656 -25.4375 11.265625 -25.28125 10.984375 -25.0625 C 10.710938 -24.84375 10.578125 -24.539062 10.578125 -24.15625 L 10.578125 -15.03125 Z M 12.359375 -15.03125 "/></g></g></g><g fill="#ffffff" fill-opacity="1"><g transform="translate(174.279083, 74.822783)"><g><path d="M 8.125 -4.84375 C 8.125 -3.6875 8.359375 -2.789062 8.828125 -2.15625 C 9.304688 -1.53125 10.097656 -1.15625 11.203125 -1.03125 C 11.203125 -0.820312 11.195312 -0.613281 11.1875 -0.40625 C 11.175781 -0.207031 11.171875 -0.0703125 11.171875 0 L 0.96875 0 L 0.953125 -1.03125 C 1.078125 -1.113281 1.238281 -1.1875 1.4375 -1.25 C 1.632812 -1.320312 1.835938 -1.390625 2.046875 -1.453125 C 2.660156 -1.617188 3.140625 -1.800781 3.484375 -2 C 3.828125 -2.195312 4.03125 -2.5 4.09375 -2.90625 C 4.207031 -3.5 4.265625 -4.101562 4.265625 -4.71875 L 4.25 -24.21875 C 4.082031 -24.488281 3.742188 -24.757812 3.234375 -25.03125 C 2.734375 -25.300781 2.238281 -25.53125 1.75 -25.71875 C 1.269531 -25.90625 0.960938 -26.019531 0.828125 -26.0625 L 0.875 -26.78125 L 6.625 -28.359375 L 8.125 -28.5 Z M 8.125 -4.84375 "/></g></g></g><g fill="#ffffff" fill-opacity="1"><g transform="translate(187.428224, 74.822783)"><g><path d="M 6.0625 -28.5 C 6.726562 -28.5 7.296875 -28.265625 7.765625 -27.796875 C 8.234375 -27.328125 8.46875 -26.757812 8.46875 -26.09375 C 8.46875 -25.414062 8.234375 -24.847656 7.765625 -24.390625 C 7.296875 -23.929688 6.726562 -23.703125 6.0625 -23.703125 C 5.382812 -23.703125 4.816406 -23.929688 4.359375 -24.390625 C 3.898438 -24.847656 3.671875 -25.414062 3.671875 -26.09375 C 3.671875 -26.757812 3.898438 -27.328125 4.359375 -27.796875 C 4.816406 -28.265625 5.382812 -28.5 6.0625 -28.5 Z M 4.40625 -15.0625 C 4.226562 -15.375 3.894531 -15.65625 3.40625 -15.90625 C 2.914062 -16.164062 2.410156 -16.378906 1.890625 -16.546875 C 1.378906 -16.722656 1.125 -16.804688 1.125 -16.796875 L 1.15625 -17.53125 L 6.984375 -18.9375 L 8.265625 -19.015625 L 8.265625 -4.5625 C 8.265625 -4.070312 8.316406 -3.613281 8.421875 -3.1875 C 8.523438 -2.757812 8.84375 -2.320312 9.375 -1.875 C 9.90625 -1.4375 10.742188 -1.15625 11.890625 -1.03125 C 11.890625 -0.582031 11.882812 -0.238281 11.875 0 L 1.0625 0 C 1.03125 -0.25 1.015625 -0.59375 1.015625 -1.03125 L 1.59375 -1.203125 C 2.195312 -1.367188 2.6875 -1.535156 3.0625 -1.703125 C 3.4375 -1.867188 3.753906 -2.113281 4.015625 -2.4375 C 4.273438 -2.757812 4.40625 -3.195312 4.40625 -3.75 Z M 4.40625 -15.0625 "/></g></g></g><g fill="#ffffff" fill-opacity="1"><g transform="translate(200.577363, 74.822783)"><g><path d="M 7.96875 -4.59375 C 7.96875 -3.40625 8.269531 -2.546875 8.875 -2.015625 C 9.476562 -1.484375 10.394531 -1.15625 11.625 -1.03125 C 11.625 -0.820312 11.613281 -0.613281 11.59375 -0.40625 C 11.582031 -0.207031 11.578125 -0.0703125 11.578125 0 L 0.90625 0 L 0.890625 -0.65625 C 0.890625 -0.882812 0.894531 -1.039062 0.90625 -1.125 C 1.707031 -1.3125 2.3125 -1.476562 2.71875 -1.625 C 3.125 -1.78125 3.457031 -2.03125 3.71875 -2.375 C 3.988281 -2.726562 4.125 -3.210938 4.125 -3.828125 L 4.125 -15.0625 C 3.957031 -15.375 3.628906 -15.65625 3.140625 -15.90625 C 2.660156 -16.164062 2.15625 -16.378906 1.625 -16.546875 C 1.09375 -16.722656 0.828125 -16.804688 0.828125 -16.796875 L 0.890625 -17.5 L 6.546875 -18.90625 L 7.8125 -19 L 8.03125 -15.640625 C 8.789062 -16.660156 9.757812 -17.503906 10.9375 -18.171875 C 12.125 -18.847656 13.398438 -19.1875 14.765625 -19.1875 C 16.765625 -19.1875 18.316406 -18.617188 19.421875 -17.484375 C 20.535156 -16.347656 21.140625 -14.65625 21.234375 -12.40625 C 21.273438 -11.519531 21.296875 -10.613281 21.296875 -9.6875 L 21.296875 -5.078125 C 21.296875 -4.066406 21.359375 -3.332031 21.484375 -2.875 C 21.609375 -2.425781 21.800781 -2.113281 22.0625 -1.9375 C 22.332031 -1.757812 22.785156 -1.578125 23.421875 -1.390625 L 24.296875 -1.125 C 24.304688 -1.039062 24.3125 -0.882812 24.3125 -0.65625 L 24.296875 0 L 14.078125 0 C 14.078125 -0.0820312 14.070312 -0.222656 14.0625 -0.421875 C 14.050781 -0.617188 14.046875 -0.820312 14.046875 -1.03125 C 14.140625 -1.070312 14.414062 -1.15625 14.875 -1.28125 C 15.601562 -1.488281 16.171875 -1.707031 16.578125 -1.9375 C 16.984375 -2.175781 17.226562 -2.5625 17.3125 -3.09375 C 17.382812 -3.488281 17.421875 -4.019531 17.421875 -4.6875 L 17.421875 -9.296875 C 17.421875 -11.140625 17.351562 -12.554688 17.21875 -13.546875 C 17.09375 -14.535156 16.75 -15.347656 16.1875 -15.984375 C 15.625 -16.617188 14.722656 -16.9375 13.484375 -16.9375 C 12.503906 -16.9375 11.5625 -16.65625 10.65625 -16.09375 C 9.75 -15.53125 8.851562 -14.78125 7.96875 -13.84375 Z M 7.96875 -4.59375 "/></g></g></g><g fill="#ffffff" fill-opacity="1"><g transform="translate(226.275747, 74.822783)"><g><path d="M 6.0625 -28.5 C 6.726562 -28.5 7.296875 -28.265625 7.765625 -27.796875 C 8.234375 -27.328125 8.46875 -26.757812 8.46875 -26.09375 C 8.46875 -25.414062 8.234375 -24.847656 7.765625 -24.390625 C 7.296875 -23.929688 6.726562 -23.703125 6.0625 -23.703125 C 5.382812 -23.703125 4.816406 -23.929688 4.359375 -24.390625 C 3.898438 -24.847656 3.671875 -25.414062 3.671875 -26.09375 C 3.671875 -26.757812 3.898438 -27.328125 4.359375 -27.796875 C 4.816406 -28.265625 5.382812 -28.5 6.0625 -28.5 Z M 4.40625 -15.0625 C 4.226562 -15.375 3.894531 -15.65625 3.40625 -15.90625 C 2.914062 -16.164062 2.410156 -16.378906 1.890625 -16.546875 C 1.378906 -16.722656 1.125 -16.804688 1.125 -16.796875 L 1.15625 -17.53125 L 6.984375 -18.9375 L 8.265625 -19.015625 L 8.265625 -4.5625 C 8.265625 -4.070312 8.316406 -3.613281 8.421875 -3.1875 C 8.523438 -2.757812 8.84375 -2.320312 9.375 -1.875 C 9.90625 -1.4375 10.742188 -1.15625 11.890625 -1.03125 C 11.890625 -0.582031 11.882812 -0.238281 11.875 0 L 1.0625 0 C 1.03125 -0.25 1.015625 -0.59375 1.015625 -1.03125 L 1.59375 -1.203125 C 2.195312 -1.367188 2.6875 -1.535156 3.0625 -1.703125 C 3.4375 -1.867188 3.753906 -2.113281 4.015625 -2.4375 C 4.273438 -2.757812 4.40625 -3.195312 4.40625 -3.75 Z M 4.40625 -15.0625 "/></g></g></g><g fill="#ffffff" fill-opacity="1"><g transform="translate(239.424885, 74.822783)"><g><path d="M 1.671875 0 L 1.65625 -0.65625 C 1.65625 -0.882812 1.660156 -1.039062 1.671875 -1.125 C 2.472656 -1.3125 3.078125 -1.476562 3.484375 -1.625 C 3.890625 -1.78125 4.222656 -2.03125 4.484375 -2.375 C 4.753906 -2.726562 4.890625 -3.210938 4.890625 -3.828125 L 4.890625 -24.109375 C 4.753906 -24.316406 4.445312 -24.566406 3.96875 -24.859375 C 3.5 -25.160156 3.003906 -25.425781 2.484375 -25.65625 C 1.972656 -25.894531 1.59375 -26.03125 1.34375 -26.0625 L 1.34375 -26.78125 L 7.265625 -28.359375 L 8.734375 -28.5 L 8.734375 -9.84375 L 10.4375 -9.84375 L 17.0625 -16.34375 C 17.09375 -16.414062 17.109375 -16.492188 17.109375 -16.578125 C 17.109375 -16.890625 16.976562 -17.097656 16.71875 -17.203125 C 16.46875 -17.304688 16.085938 -17.382812 15.578125 -17.4375 C 15.171875 -17.476562 14.878906 -17.523438 14.703125 -17.578125 C 14.523438 -17.640625 14.4375 -17.757812 14.4375 -17.9375 C 14.4375 -18.132812 14.457031 -18.363281 14.5 -18.625 L 23.28125 -18.625 L 23.34375 -17.9375 C 23.34375 -17.644531 22.769531 -17.382812 21.625 -17.15625 C 20.6875 -16.957031 19.984375 -16.660156 19.515625 -16.265625 L 13.796875 -10.390625 L 19.265625 -3.3125 C 19.691406 -2.75 20.234375 -2.300781 20.890625 -1.96875 C 21.554688 -1.632812 22.175781 -1.40625 22.75 -1.28125 C 23.320312 -1.15625 23.71875 -1.09375 23.9375 -1.09375 L 23.890625 0 L 13.625 0 C 13.613281 -0.113281 13.585938 -0.320312 13.546875 -0.625 C 13.515625 -0.925781 13.507812 -1.078125 13.53125 -1.078125 C 14.332031 -1.078125 14.875 -1.171875 15.15625 -1.359375 C 15.445312 -1.546875 15.59375 -1.753906 15.59375 -1.984375 C 15.59375 -2.109375 15.503906 -2.269531 15.328125 -2.46875 L 10.5 -8.703125 L 8.734375 -8.703125 L 8.734375 -4.59375 C 8.734375 -3.40625 9.035156 -2.546875 9.640625 -2.015625 C 10.242188 -1.484375 11.160156 -1.15625 12.390625 -1.03125 C 12.390625 -0.820312 12.378906 -0.613281 12.359375 -0.40625 C 12.347656 -0.207031 12.34375 -0.0703125 12.34375 0 Z M 1.671875 0 "/></g></g></g><g fill="#ffffff" fill-opacity="1"><g transform="translate(264.481315, 74.822783)"><g/></g></g><g fill="#ffffff" fill-opacity="1"><g transform="translate(275.269706, 74.822783)"><g><path d="M 28.703125 -1.96875 C 27.253906 -1.207031 25.59375 -0.597656 23.71875 -0.140625 C 21.84375 0.304688 19.941406 0.53125 18.015625 0.53125 C 14.898438 0.53125 12.15625 -0.0351562 9.78125 -1.171875 C 7.414062 -2.304688 5.578125 -3.910156 4.265625 -5.984375 C 2.960938 -8.066406 2.3125 -10.476562 2.3125 -13.21875 C 2.3125 -16.019531 3.054688 -18.503906 4.546875 -20.671875 C 6.046875 -22.835938 8.050781 -24.515625 10.5625 -25.703125 C 13.070312 -26.890625 15.8125 -27.484375 18.78125 -27.484375 C 20.414062 -27.484375 21.910156 -27.359375 23.265625 -27.109375 C 24.628906 -26.859375 26.164062 -26.429688 27.875 -25.828125 L 28.5 -19.578125 C 28.070312 -19.535156 27.671875 -19.515625 27.296875 -19.515625 C 27.109375 -19.679688 26.929688 -19.894531 26.765625 -20.15625 C 26.609375 -20.414062 26.394531 -20.804688 26.125 -21.328125 C 25.976562 -21.609375 25.828125 -21.882812 25.671875 -22.15625 C 25.523438 -22.425781 25.390625 -22.632812 25.265625 -22.78125 C 23.523438 -24.851562 21.1875 -25.890625 18.25 -25.890625 C 16.144531 -25.890625 14.257812 -25.367188 12.59375 -24.328125 C 10.925781 -23.296875 9.617188 -21.875 8.671875 -20.0625 C 7.734375 -18.25 7.265625 -16.222656 7.265625 -13.984375 C 7.265625 -11.566406 7.726562 -9.390625 8.65625 -7.453125 C 9.59375 -5.523438 10.90625 -4.015625 12.59375 -2.921875 C 14.28125 -1.828125 16.207031 -1.28125 18.375 -1.28125 C 19.519531 -1.28125 20.53125 -1.378906 21.40625 -1.578125 C 22.28125 -1.785156 23.113281 -2.132812 23.90625 -2.625 C 24.070312 -4.039062 24.15625 -5.796875 24.15625 -7.890625 C 24.15625 -9.203125 23.960938 -10.390625 23.578125 -11.453125 C 23.421875 -11.878906 23.128906 -12.175781 22.703125 -12.34375 C 22.285156 -12.519531 21.71875 -12.664062 21 -12.78125 C 20.363281 -12.894531 19.921875 -13 19.671875 -13.09375 C 19.671875 -13.300781 19.675781 -13.507812 19.6875 -13.71875 C 19.707031 -13.9375 19.71875 -14.085938 19.71875 -14.171875 L 32.140625 -14.171875 C 32.140625 -14.085938 32.144531 -13.9375 32.15625 -13.71875 C 32.175781 -13.507812 32.1875 -13.300781 32.1875 -13.09375 C 32.007812 -13.019531 31.8125 -12.953125 31.59375 -12.890625 C 30.925781 -12.648438 30.40625 -12.425781 30.03125 -12.21875 C 29.65625 -12.007812 29.335938 -11.691406 29.078125 -11.265625 C 28.828125 -10.847656 28.703125 -10.289062 28.703125 -9.59375 Z M 28.703125 -1.96875 "/></g></g></g><g fill="#ffffff" fill-opacity="1"><g transform="translate(308.754411, 74.822783)"><g><path d="M 6.0625 -28.5 C 6.726562 -28.5 7.296875 -28.265625 7.765625 -27.796875 C 8.234375 -27.328125 8.46875 -26.757812 8.46875 -26.09375 C 8.46875 -25.414062 8.234375 -24.847656 7.765625 -24.390625 C 7.296875 -23.929688 6.726562 -23.703125 6.0625 -23.703125 C 5.382812 -23.703125 4.816406 -23.929688 4.359375 -24.390625 C 3.898438 -24.847656 3.671875 -25.414062 3.671875 -26.09375 C 3.671875 -26.757812 3.898438 -27.328125 4.359375 -27.796875 C 4.816406 -28.265625 5.382812 -28.5 6.0625 -28.5 Z M 4.40625 -15.0625 C 4.226562 -15.375 3.894531 -15.65625 3.40625 -15.90625 C 2.914062 -16.164062 2.410156 -16.378906 1.890625 -16.546875 C 1.378906 -16.722656 1.125 -16.804688 1.125 -16.796875 L 1.15625 -17.53125 L 6.984375 -18.9375 L 8.265625 -19.015625 L 8.265625 -4.5625 C 8.265625 -4.070312 8.316406 -3.613281 8.421875 -3.1875 C 8.523438 -2.757812 8.84375 -2.320312 9.375 -1.875 C 9.90625 -1.4375 10.742188 -1.15625 11.890625 -1.03125 C 11.890625 -0.582031 11.882812 -0.238281 11.875 0 L 1.0625 0 C 1.03125 -0.25 1.015625 -0.59375 1.015625 -1.03125 L 1.59375 -1.203125 C 2.195312 -1.367188 2.6875 -1.535156 3.0625 -1.703125 C 3.4375 -1.867188 3.753906 -2.113281 4.015625 -2.4375 C 4.273438 -2.757812 4.40625 -3.195312 4.40625 -3.75 Z M 4.40625 -15.0625 "/></g></g></g><g fill="#ffffff" fill-opacity="1"><g transform="translate(321.903559, 74.822783)"><g><path d="M 19.53125 -16.671875 C 19.226562 -16.765625 18.734375 -16.8125 18.046875 -16.8125 C 17.492188 -16.8125 16.910156 -16.785156 16.296875 -16.734375 C 15.691406 -16.691406 15.300781 -16.660156 15.125 -16.640625 C 15.125 -16.660156 15.273438 -16.457031 15.578125 -16.03125 C 15.878906 -15.613281 16.148438 -15.132812 16.390625 -14.59375 C 16.628906 -14.050781 16.75 -13.507812 16.75 -12.96875 C 16.75 -11.570312 16.394531 -10.375 15.6875 -9.375 C 14.988281 -8.382812 14.078125 -7.632812 12.953125 -7.125 C 11.828125 -6.625 10.648438 -6.375 9.421875 -6.375 C 8.734375 -6.375 7.847656 -6.5 6.765625 -6.75 C 6.734375 -6.726562 6.578125 -6.625 6.296875 -6.4375 C 5.953125 -6.21875 5.695312 -6.015625 5.53125 -5.828125 C 5.375 -5.640625 5.296875 -5.375 5.296875 -5.03125 C 5.296875 -4.6875 5.472656 -4.425781 5.828125 -4.25 C 6.191406 -4.082031 6.675781 -3.96875 7.28125 -3.90625 C 7.894531 -3.84375 8.863281 -3.785156 10.1875 -3.734375 C 11.1875 -3.691406 12.300781 -3.628906 13.53125 -3.546875 C 15.28125 -3.421875 16.691406 -2.960938 17.765625 -2.171875 C 18.847656 -1.390625 19.390625 -0.304688 19.390625 1.078125 C 19.390625 2.316406 18.925781 3.40625 18 4.34375 C 17.070312 5.289062 15.820312 6.015625 14.25 6.515625 C 12.6875 7.015625 10.96875 7.265625 9.09375 7.265625 C 7.53125 7.265625 6.175781 7.09375 5.03125 6.75 C 3.882812 6.414062 3.007812 5.984375 2.40625 5.453125 C 1.8125 4.921875 1.515625 4.375 1.515625 3.8125 C 1.515625 3.207031 1.769531 2.535156 2.28125 1.796875 C 2.789062 1.066406 3.59375 0.300781 4.6875 -0.5 C 3.90625 -0.8125 3.296875 -1.21875 2.859375 -1.71875 C 2.429688 -2.21875 2.21875 -2.769531 2.21875 -3.375 C 2.21875 -4.101562 2.515625 -4.78125 3.109375 -5.40625 C 3.703125 -6.03125 4.546875 -6.660156 5.640625 -7.296875 C 4.546875 -7.910156 3.703125 -8.671875 3.109375 -9.578125 C 2.515625 -10.492188 2.21875 -11.535156 2.21875 -12.703125 C 2.21875 -13.941406 2.523438 -15.054688 3.140625 -16.046875 C 3.753906 -17.035156 4.609375 -17.804688 5.703125 -18.359375 C 6.804688 -18.910156 8.039062 -19.1875 9.40625 -19.1875 C 11.050781 -19.1875 12.570312 -18.816406 13.96875 -18.078125 C 14.101562 -18.140625 14.410156 -18.25 14.890625 -18.40625 C 15.378906 -18.5625 15.957031 -18.710938 16.625 -18.859375 C 17.289062 -19.015625 17.898438 -19.09375 18.453125 -19.09375 C 18.648438 -19.09375 18.847656 -19.082031 19.046875 -19.0625 C 19.242188 -19.039062 19.367188 -19.023438 19.421875 -19.015625 Z M 5.90625 -13.125 C 5.90625 -11.550781 6.234375 -10.257812 6.890625 -9.25 C 7.546875 -8.25 8.519531 -7.75 9.8125 -7.75 C 10.9375 -7.75 11.769531 -8.160156 12.3125 -8.984375 C 12.851562 -9.816406 13.125 -10.941406 13.125 -12.359375 C 13.125 -13.484375 12.957031 -14.441406 12.625 -15.234375 C 12.289062 -16.023438 11.828125 -16.625 11.234375 -17.03125 C 10.640625 -17.4375 9.972656 -17.640625 9.234375 -17.640625 C 8.617188 -17.640625 8.054688 -17.453125 7.546875 -17.078125 C 7.046875 -16.703125 6.644531 -16.171875 6.34375 -15.484375 C 6.050781 -14.796875 5.90625 -14.007812 5.90625 -13.125 Z M 9.78125 -0.0625 C 8.726562 -0.0703125 7.539062 -0.15625 6.21875 -0.3125 C 4.875 0.832031 4.203125 1.882812 4.203125 2.84375 C 4.203125 3.5 4.507812 4.03125 5.125 4.4375 C 5.738281 4.84375 6.460938 5.128906 7.296875 5.296875 C 8.140625 5.460938 8.914062 5.546875 9.625 5.546875 C 10.632812 5.546875 11.675781 5.429688 12.75 5.203125 C 13.832031 4.984375 14.738281 4.632812 15.46875 4.15625 C 16.207031 3.6875 16.578125 3.113281 16.578125 2.4375 C 16.578125 1.695312 16.164062 1.113281 15.34375 0.6875 C 14.519531 0.257812 13.25 0.0234375 11.53125 -0.015625 Z M 9.78125 -0.0625 "/></g></g></g><g fill="#ffffff" fill-opacity="1"><g transform="translate(343.480992, 74.822783)"><g><path d="M 6.0625 -28.5 C 6.726562 -28.5 7.296875 -28.265625 7.765625 -27.796875 C 8.234375 -27.328125 8.46875 -26.757812 8.46875 -26.09375 C 8.46875 -25.414062 8.234375 -24.847656 7.765625 -24.390625 C 7.296875 -23.929688 6.726562 -23.703125 6.0625 -23.703125 C 5.382812 -23.703125 4.816406 -23.929688 4.359375 -24.390625 C 3.898438 -24.847656 3.671875 -25.414062 3.671875 -26.09375 C 3.671875 -26.757812 3.898438 -27.328125 4.359375 -27.796875 C 4.816406 -28.265625 5.382812 -28.5 6.0625 -28.5 Z M 4.40625 -15.0625 C 4.226562 -15.375 3.894531 -15.65625 3.40625 -15.90625 C 2.914062 -16.164062 2.410156 -16.378906 1.890625 -16.546875 C 1.378906 -16.722656 1.125 -16.804688 1.125 -16.796875 L 1.15625 -17.53125 L 6.984375 -18.9375 L 8.265625 -19.015625 L 8.265625 -4.5625 C 8.265625 -4.070312 8.316406 -3.613281 8.421875 -3.1875 C 8.523438 -2.757812 8.84375 -2.320312 9.375 -1.875 C 9.90625 -1.4375 10.742188 -1.15625 11.890625 -1.03125 C 11.890625 -0.582031 11.882812 -0.238281 11.875 0 L 1.0625 0 C 1.03125 -0.25 1.015625 -0.59375 1.015625 -1.03125 L 1.59375 -1.203125 C 2.195312 -1.367188 2.6875 -1.535156 3.0625 -1.703125 C 3.4375 -1.867188 3.753906 -2.113281 4.015625 -2.4375 C 4.273438 -2.757812 4.40625 -3.195312 4.40625 -3.75 Z M 4.40625 -15.0625 "/></g></g></g><g fill="#ffffff" fill-opacity="1"><g transform="translate(143.051572, 116.28196)"><g><path d="M 22.46875 -9.65625 C 22.082031 -9.613281 21.691406 -9.59375 21.296875 -9.59375 C 20.660156 -10.914062 20.132812 -11.835938 19.71875 -12.359375 C 19.300781 -12.890625 18.820312 -13.226562 18.28125 -13.375 C 17.738281 -13.53125 16.859375 -13.609375 15.640625 -13.609375 L 10.484375 -13.609375 L 10.484375 -5.34375 C 10.484375 -4.28125 10.585938 -3.492188 10.796875 -2.984375 C 11.003906 -2.484375 11.28125 -2.15625 11.625 -2 C 11.976562 -1.84375 12.515625 -1.707031 13.234375 -1.59375 C 13.742188 -1.507812 14.160156 -1.4375 14.484375 -1.375 C 14.804688 -1.3125 15.15625 -1.210938 15.53125 -1.078125 L 15.53125 0 L 1.578125 0 L 1.53125 -1.078125 C 1.863281 -1.234375 2.179688 -1.347656 2.484375 -1.421875 C 2.785156 -1.503906 3.050781 -1.570312 3.28125 -1.625 C 3.507812 -1.675781 3.660156 -1.707031 3.734375 -1.71875 C 4.347656 -1.84375 4.800781 -1.984375 5.09375 -2.140625 C 5.382812 -2.296875 5.613281 -2.617188 5.78125 -3.109375 C 5.945312 -3.609375 6.03125 -4.375 6.03125 -5.40625 L 6.03125 -21.15625 C 6.03125 -22.269531 5.9375 -23.09375 5.75 -23.625 C 5.5625 -24.15625 5.289062 -24.519531 4.9375 -24.71875 C 4.582031 -24.914062 4.015625 -25.128906 3.234375 -25.359375 C 2.503906 -25.546875 1.894531 -25.726562 1.40625 -25.90625 L 1.40625 -26.96875 L 22.140625 -26.984375 L 25.625 -27.03125 L 25.625 -20.609375 L 24.6875 -20.5625 C 24.476562 -20.800781 24.289062 -21.054688 24.125 -21.328125 C 23.96875 -21.597656 23.765625 -21.96875 23.515625 -22.4375 C 23.191406 -23.03125 22.910156 -23.5 22.671875 -23.84375 C 22.441406 -24.195312 22.148438 -24.507812 21.796875 -24.78125 C 21.441406 -25.0625 21.023438 -25.238281 20.546875 -25.3125 C 19.898438 -25.40625 19.25 -25.460938 18.59375 -25.484375 C 17.9375 -25.503906 17.117188 -25.515625 16.140625 -25.515625 L 12.15625 -25.515625 C 11.632812 -25.515625 11.265625 -25.488281 11.046875 -25.4375 C 10.835938 -25.382812 10.691406 -25.253906 10.609375 -25.046875 C 10.523438 -24.847656 10.484375 -24.507812 10.484375 -24.03125 L 10.484375 -15.1875 C 11.078125 -15.1875 11.882812 -15.171875 12.90625 -15.140625 C 13.8125 -15.109375 14.472656 -15.09375 14.890625 -15.09375 C 16.523438 -15.09375 17.863281 -15.234375 18.90625 -15.515625 C 19.363281 -15.640625 19.71875 -15.875 19.96875 -16.21875 C 20.226562 -16.570312 20.488281 -17.0625 20.75 -17.6875 C 20.789062 -17.78125 20.859375 -17.9375 20.953125 -18.15625 C 21.054688 -18.375 21.15625 -18.554688 21.25 -18.703125 L 22.46875 -18.65625 Z M 22.46875 -9.65625 "/></g></g></g><g fill="#ffffff" fill-opacity="1"><g transform="translate(170.033868, 116.28196)"><g><path d="M 13.046875 -12.609375 C 13.046875 -13.648438 12.953125 -14.53125 12.765625 -15.25 C 12.578125 -15.96875 12.203125 -16.546875 11.640625 -16.984375 C 11.085938 -17.421875 10.296875 -17.640625 9.265625 -17.640625 C 8.898438 -17.640625 8.453125 -17.5625 7.921875 -17.40625 C 7.398438 -17.257812 6.941406 -17.046875 6.546875 -16.765625 C 6.160156 -16.484375 5.96875 -16.15625 5.96875 -15.78125 C 5.96875 -15.632812 5.992188 -15.488281 6.046875 -15.34375 C 6.097656 -15.195312 6.1875 -15.015625 6.3125 -14.796875 C 6.4375 -14.585938 6.523438 -14.40625 6.578125 -14.25 C 6.640625 -14.09375 6.671875 -13.9375 6.671875 -13.78125 C 6.671875 -13.226562 6.492188 -12.765625 6.140625 -12.390625 C 5.785156 -12.023438 5.332031 -11.84375 4.78125 -11.84375 C 4.09375 -11.84375 3.546875 -12.097656 3.140625 -12.609375 C 2.734375 -13.117188 2.53125 -13.734375 2.53125 -14.453125 C 2.53125 -15.535156 2.945312 -16.425781 3.78125 -17.125 C 4.625 -17.832031 5.644531 -18.351562 6.84375 -18.6875 C 8.039062 -19.019531 9.15625 -19.1875 10.1875 -19.1875 C 12.132812 -19.1875 13.585938 -18.898438 14.546875 -18.328125 C 15.503906 -17.753906 16.140625 -16.914062 16.453125 -15.8125 C 16.765625 -14.71875 16.921875 -13.179688 16.921875 -11.203125 L 16.875 -10.171875 C 16.863281 -9.867188 16.847656 -9.363281 16.828125 -8.65625 C 16.804688 -7.957031 16.796875 -7.3125 16.796875 -6.71875 C 16.796875 -3.601562 17.117188 -2.046875 17.765625 -2.046875 C 18.242188 -2.046875 18.851562 -2.523438 19.59375 -3.484375 L 20.46875 -2.546875 C 19.851562 -1.554688 19.25 -0.8125 18.65625 -0.3125 C 18.0625 0.175781 17.285156 0.421875 16.328125 0.421875 C 15.410156 0.421875 14.65625 0.132812 14.0625 -0.4375 C 13.476562 -1.019531 13.160156 -1.765625 13.109375 -2.671875 C 12.222656 -1.703125 11.234375 -0.941406 10.140625 -0.390625 C 9.046875 0.148438 7.882812 0.421875 6.65625 0.421875 C 5.789062 0.421875 4.992188 0.265625 4.265625 -0.046875 C 3.546875 -0.359375 2.96875 -0.820312 2.53125 -1.4375 C 2.101562 -2.0625 1.890625 -2.8125 1.890625 -3.6875 C 1.890625 -5 2.390625 -6.085938 3.390625 -6.953125 C 4.398438 -7.828125 5.5625 -8.488281 6.875 -8.9375 C 8.1875 -9.394531 9.789062 -9.851562 11.6875 -10.3125 C 11.851562 -10.34375 12.304688 -10.453125 13.046875 -10.640625 Z M 13.046875 -9.421875 C 12.835938 -9.359375 12.578125 -9.273438 12.265625 -9.171875 C 11.078125 -8.785156 10.0625 -8.414062 9.21875 -8.0625 C 8.375 -7.71875 7.617188 -7.25 6.953125 -6.65625 C 6.296875 -6.0625 5.96875 -5.363281 5.96875 -4.5625 C 5.96875 -3.738281 6.191406 -3.09375 6.640625 -2.625 C 7.085938 -2.15625 7.71875 -1.921875 8.53125 -1.921875 C 9.34375 -1.921875 10.128906 -2.125 10.890625 -2.53125 C 11.648438 -2.945312 12.367188 -3.484375 13.046875 -4.140625 Z M 13.046875 -9.421875 "/></g></g></g><g fill="#ffffff" fill-opacity="1"><g transform="translate(191.859805, 116.28196)"><g><path d="M 7.609375 -6.5 C 7.609375 -5.09375 7.65625 -4.085938 7.75 -3.484375 C 7.84375 -2.890625 8.078125 -2.457031 8.453125 -2.1875 C 8.828125 -1.914062 9.457031 -1.78125 10.34375 -1.78125 C 10.863281 -1.78125 11.382812 -1.828125 11.90625 -1.921875 C 12.4375 -2.023438 12.878906 -2.128906 13.234375 -2.234375 L 13.40625 -0.71875 C 12.695312 -0.375 11.984375 -0.0976562 11.265625 0.109375 C 10.546875 0.316406 9.679688 0.421875 8.671875 0.421875 C 7.335938 0.421875 6.316406 0.203125 5.609375 -0.234375 C 4.910156 -0.679688 4.421875 -1.398438 4.140625 -2.390625 C 3.867188 -3.378906 3.734375 -4.769531 3.734375 -6.5625 L 3.734375 -17.0625 L 0.640625 -17.0625 L 0.640625 -17.796875 C 1.578125 -18.171875 2.367188 -18.609375 3.015625 -19.109375 C 3.660156 -19.609375 4.1875 -20.128906 4.59375 -20.671875 C 5.007812 -21.210938 5.507812 -21.925781 6.09375 -22.8125 C 6.34375 -23.207031 6.535156 -23.46875 6.671875 -23.59375 C 6.804688 -23.726562 6.941406 -23.796875 7.078125 -23.796875 C 7.222656 -23.796875 7.335938 -23.726562 7.421875 -23.59375 C 7.515625 -23.46875 7.5625 -23.269531 7.5625 -23 L 7.5625 -18.625 L 12.765625 -18.625 L 12.765625 -17.0625 L 7.609375 -17.0625 Z M 7.609375 -6.5 "/></g></g></g><g fill="#ffffff" fill-opacity="1"><g transform="translate(206.872692, 116.28196)"><g><path d="M 6.0625 -28.5 C 6.726562 -28.5 7.296875 -28.265625 7.765625 -27.796875 C 8.234375 -27.328125 8.46875 -26.757812 8.46875 -26.09375 C 8.46875 -25.414062 8.234375 -24.847656 7.765625 -24.390625 C 7.296875 -23.929688 6.726562 -23.703125 6.0625 -23.703125 C 5.382812 -23.703125 4.816406 -23.929688 4.359375 -24.390625 C 3.898438 -24.847656 3.671875 -25.414062 3.671875 -26.09375 C 3.671875 -26.757812 3.898438 -27.328125 4.359375 -27.796875 C 4.816406 -28.265625 5.382812 -28.5 6.0625 -28.5 Z M 4.40625 -15.0625 C 4.226562 -15.375 3.894531 -15.65625 3.40625 -15.90625 C 2.914062 -16.164062 2.410156 -16.378906 1.890625 -16.546875 C 1.378906 -16.722656 1.125 -16.804688 1.125 -16.796875 L 1.15625 -17.53125 L 6.984375 -18.9375 L 8.265625 -19.015625 L 8.265625 -4.5625 C 8.265625 -4.070312 8.316406 -3.613281 8.421875 -3.1875 C 8.523438 -2.757812 8.84375 -2.320312 9.375 -1.875 C 9.90625 -1.4375 10.742188 -1.15625 11.890625 -1.03125 C 11.890625 -0.582031 11.882812 -0.238281 11.875 0 L 1.0625 0 C 1.03125 -0.25 1.015625 -0.59375 1.015625 -1.03125 L 1.59375 -1.203125 C 2.195312 -1.367188 2.6875 -1.535156 3.0625 -1.703125 C 3.4375 -1.867188 3.753906 -2.113281 4.015625 -2.4375 C 4.273438 -2.757812 4.40625 -3.195312 4.40625 -3.75 Z M 4.40625 -15.0625 "/></g></g></g><g fill="#ffffff" fill-opacity="1"><g transform="translate(220.02183, 116.28196)"><g><path d="M 21.515625 -4.578125 C 21.515625 -3.515625 21.785156 -2.679688 22.328125 -2.078125 C 22.878906 -1.484375 23.660156 -1.132812 24.671875 -1.03125 C 24.671875 -0.820312 24.660156 -0.617188 24.640625 -0.421875 C 24.628906 -0.222656 24.625 -0.0820312 24.625 0 L 14.4375 0 C 14.4375 -0.0820312 14.425781 -0.222656 14.40625 -0.421875 C 14.394531 -0.617188 14.390625 -0.820312 14.390625 -1.03125 C 14.628906 -1.144531 15.085938 -1.304688 15.765625 -1.515625 C 16.285156 -1.679688 16.664062 -1.835938 16.90625 -1.984375 C 17.15625 -2.128906 17.34375 -2.382812 17.46875 -2.75 C 17.601562 -3.125 17.671875 -3.6875 17.671875 -4.4375 L 17.671875 -11.953125 C 17.671875 -13.472656 17.347656 -14.679688 16.703125 -15.578125 C 16.066406 -16.484375 15.0625 -16.9375 13.6875 -16.9375 C 12.707031 -16.9375 11.757812 -16.675781 10.84375 -16.15625 C 9.925781 -15.644531 9.082031 -14.984375 8.3125 -14.171875 L 8.3125 -4.828125 C 8.3125 -3.585938 8.59375 -2.675781 9.15625 -2.09375 C 9.71875 -1.507812 10.644531 -1.15625 11.9375 -1.03125 L 11.90625 0 L 0.875 0 C 0.875 -0.0820312 0.863281 -0.222656 0.84375 -0.421875 C 0.832031 -0.617188 0.828125 -0.820312 0.828125 -1.03125 C 3.242188 -1.226562 4.453125 -2.492188 4.453125 -4.828125 L 4.453125 -24.109375 C 4.316406 -24.316406 4.015625 -24.566406 3.546875 -24.859375 C 3.078125 -25.160156 2.582031 -25.425781 2.0625 -25.65625 C 1.539062 -25.894531 1.15625 -26.03125 0.90625 -26.0625 L 0.90625 -26.78125 L 6.828125 -28.359375 L 8.3125 -28.5 L 8.3125 -15.90625 C 9.394531 -17 10.460938 -17.816406 11.515625 -18.359375 C 12.566406 -18.910156 13.78125 -19.1875 15.15625 -19.1875 C 17.082031 -19.1875 18.625 -18.570312 19.78125 -17.34375 C 20.9375 -16.125 21.515625 -14.265625 21.515625 -11.765625 Z M 21.515625 -4.578125 "/></g></g></g><g clip-path="url(#fb835b8d59)"><path fill="#3abeda" d="M 37.9375 76.140625 C 39.425781 81.542969 40.859375 88.09375 42.570312 98.367188 C 45.386719 115.296875 49.152344 121.875 52.515625 124.777344 C 53.148438 125.324219 53.917969 125.691406 54.726562 125.910156 C 58.351562 126.898438 61.984375 124.363281 62.304688 120.621094 L 65.222656 86.625 C 65.402344 84.554688 66.128906 82.53125 67.507812 80.976562 C 71.203125 76.8125 77.632812 76.8125 81.328125 80.976562 C 82.707031 82.53125 83.433594 84.554688 83.613281 86.625 L 86.53125 120.621094 C 86.851562 124.363281 90.488281 126.902344 94.109375 125.910156 C 94.917969 125.691406 95.6875 125.324219 96.324219 124.777344 C 99.683594 121.875 103.449219 115.296875 106.265625 98.367188 C 109.140625 81.105469 111.230469 74.324219 114.125 65.914062 C 116.082031 60.238281 119.019531 54.488281 121.078125 47.113281 C 110.195312 54.207031 97.058594 60.59375 83.464844 65.546875 C 68.136719 71.128906 52.082031 74.957031 37.9375 76.140625 Z M 37.9375 76.140625 " fill-opacity="1" fill-rule="nonzero"/></g><path fill="#ffffff" d="M 141.605469 9.050781 C 139.96875 4.566406 135.175781 1.542969 128.144531 -0.0195312 C 127.675781 -0.121094 127.460938 0.542969 127.894531 0.738281 C 130.9375 2.09375 133.007812 3.984375 133.894531 6.414062 C 135.894531 11.898438 131.503906 19.164062 122.683594 26.648438 C 118.949219 7.332031 97.976562 9.378906 90.96875 11.875 C 90.734375 11.957031 90.480469 12.042969 90.210938 12.128906 C 84.457031 13.984375 79.101562 16.851562 74.378906 20.621094 C 70.496094 23.71875 64.894531 26.816406 58.265625 26.488281 C 58.265625 26.488281 66.765625 22.929688 70.0625 14.964844 C 68.425781 14.777344 66.804688 14.488281 65.199219 14.089844 C 63.015625 13.542969 60.535156 12.824219 57.875 11.875 C 49.957031 9.058594 24.230469 6.773438 25.609375 35.171875 C 26.53125 46.25 29.96875 53.9375 32.789062 60.894531 C 18.890625 61.5625 9.054688 58.871094 6.8125 52.71875 C 5.921875 50.289062 6.292969 47.507812 7.746094 44.515625 C 7.957031 44.085938 7.363281 43.714844 7.070312 44.097656 C 2.695312 49.820312 0.96875 55.214844 2.605469 59.695312 C 7.660156 73.5625 42.871094 73.460938 81.257812 59.476562 C 119.640625 45.488281 146.65625 22.914062 141.605469 9.050781 Z M 141.605469 9.050781 " fill-opacity="1" fill-rule="nonzero"/></svg>